<?xml version="1.0" encoding="UTF-8" standalone="no"?>
<!-- Created with Pixodesk SVG (https://pixodesk.com) -->
<svg xmlns="http://www.w3.org/2000/svg" xmlns:pixodesk="https://pixodesk.com" viewBox="0 0 800 800" text-rendering="geometricPrecision" shape-rendering="geometricPrecision">
  <g transform="translate(408.8945, 379.42)translate(-408.8945, -379.42)">
    <g transform="translate(408.8945, 379.42)scale(1.4, 1.4)translate(-408.8945, -379.42)">
      <g transform="translate(103.1377, 93.9814)scale(1, 1.044)">
        <path fill="none" stroke="#000000" stroke-width="29.35" d="M186.695,400L186.695,139.296L186.695,400z"/>
      </g>
      <g transform="translate(186.89, 91.8636)scale(1, 1.044)">
        <path fill="none" stroke="#000000" stroke-width="29.35" d="M186.695,400L186.695,139.296L186.695,400z"/>
      </g>
      <g transform="translate(264.9842, 89.9583)scale(1, 1.044)">
        <path fill="none" stroke="#000000" stroke-width="29.35" d="M186.695,400L186.695,139.296L186.695,400z"/>
      </g>
      <g transform="translate(341.1745, 96.5294)scale(1, 1.044)">
        <path fill="none" stroke="#000000" stroke-width="29.35" d="M186.695,400L186.695,139.296L186.695,400z"/>
      </g>
      <g transform="translate(813.5553, 289.0058)rotate(90)scale(1.2874, 1.344)">
        <path fill="none" stroke="#000000" stroke-width="29.35" d="M186.695,400L186.695,139.296L186.695,400z"/>
      </g>
      <g transform="translate(729.0312, -10.8521)rotate(90)scale(1.2874, 1.344)">
        <path fill="none" stroke="#000000" stroke-width="29.35" d="M186.695,400L186.695,139.296L186.695,400z"/>
      </g>
    </g>
  </g>
</svg>